<?xml version="1.0" encoding="utf-8"?>
<!-- Generator: Adobe Illustrator 16.0.0, SVG Export Plug-In . SVG Version: 6.00 Build 0)  -->
<!DOCTYPE svg PUBLIC "-//W3C//DTD SVG 1.1//EN" "http://www.w3.org/Graphics/SVG/1.1/DTD/svg11.dtd">
<svg version="1.1" id="Capa_1" xmlns="http://www.w3.org/2000/svg" xmlns:xlink="http://www.w3.org/1999/xlink" x="0px" y="0px"
	 width="100px" height="100px" viewBox="0 0 100 100" enable-background="new 0 0 100 100" xml:space="preserve">
<g>
	<g>
		<circle fill="#24B6DD" cx="50" cy="50" r="50"/>
	</g>
	<path fill="#178DC1" d="M0.039,48.499C0.024,48.998,0,49.497,0,50c0,27.616,22.389,50,50.002,50c2.3,0,4.556-0.168,6.773-0.469
		L69.52,85.977L30.91,13.545L0.039,48.499z"/>
	<g>
		<path fill="#FFFFFF" d="M66.443,12.479H50.047c-0.016,0-0.029,0-0.045,0c-0.014,0-0.029,0-0.043,0H33.562
			c-2.124,0-3.843,1.724-3.843,3.848v0.474v66.402v0.473c0,2.123,1.719,3.846,3.843,3.846h32.882c2.129,0,3.848-1.723,3.848-3.846
			v-0.473V16.801v-0.474C70.291,14.203,68.572,12.479,66.443,12.479z"/>
		<rect x="33.068" y="21.05" fill="#2D2D2D" width="33.863" height="54.823"/>
		<g>
			<polygon fill="#4C4C4C" points="66.932,32.503 66.932,28.235 33.068,62.102 33.068,66.369 			"/>
			<polygon fill="#4C4C4C" points="33.068,56.646 66.932,22.781 66.932,21.05 51.121,21.05 33.068,39.104 			"/>
			<polygon fill="#4C4C4C" points="66.932,56.701 66.932,52.434 43.494,75.873 47.761,75.873 			"/>
		</g>
		<path fill="#BCBCBC" d="M53.094,81.408c0,1.705-1.387,3.092-3.091,3.092c-1.704,0-3.091-1.387-3.091-3.092
			c0-1.709,1.387-3.09,3.091-3.09C51.707,78.318,53.094,79.699,53.094,81.408z"/>
		<path fill="#BCBCBC" d="M55.168,17.11c0,0.605-0.488,1.091-1.088,1.091h-8.155c-0.601,0-1.089-0.486-1.089-1.091l0,0
			c0-0.602,0.488-1.088,1.089-1.088h8.155C54.68,16.021,55.168,16.508,55.168,17.11L55.168,17.11z"/>
	</g>
	<g id="Imagotipo_122_">
		<polygon id="triangulo_base_99_" fill="#FBC026" points="50.002,51.916 37.136,44.49 42.068,56.682 57.938,56.682 62.869,44.49 		
			"/>
		<polygon id="triangulo_superior_118_" fill="#FBC026" points="50.002,37.063 57.938,56.682 42.068,56.682 		"/>
	</g>
</g>
</svg>
