<svg xmlns="http://www.w3.org/2000/svg" viewBox="0 0 100 100" enable-background="new 0 0 100 100"><circle fill="#ed2121" cx="50" cy="50" r="50"/><path opacity=".7" fill="#ba1a1a" d="m29.31 19.383l-29.27 29.27c-.012.449-.034.894-.034 1.345 0 27.09 21.546 49.13 48.44 49.96l19.344-19.345-11.4-29.493 14.314-14.314-41.39-17.426"/><path fill="#68c600" d="m32.22 32.12h35.558v48.5h-35.558z"/><path fill="#cdf489" d="m38.807 32.12h6.251v48.5h-6.251z"/><g fill="#359c00"><path d="m32.22 32.12h3.286v48.5h-3.286z"/><path d="m50 32.12h17.779v48.5h-17.779z"/></g><path fill="#308200" d="m58.89 32.12h8.889v48.5h-8.889z"/><path fill="#2a6309" d="m32.22 32.12h35.558v8.04h-35.558z"/><path fill="#68c600" d="m29.31 19.383h41.39v17.426h-41.39z"/><path fill="#cdf489" d="m38.807 19.383h6.251v17.426h-6.251z"/><g fill="#359c00"><path d="m29.31 19.383h6.2v17.426h-6.2z"/><path d="m50 19.383h20.693v17.426h-20.693z"/></g><path fill="#308200" d="m58.89 19.383h11.803v17.426h-11.803z"/></svg>