<svg xmlns="http://www.w3.org/2000/svg" viewBox="0 0 100 100" enable-background="new 0 0 100 100"><circle fill="#4f1c4e" cx="50" cy="50" r="50"/><path fill="#411742" d="m14.645 85.36c8.438 8.438 19.14 13.221 30.15 14.365l40.06-40.06-11.888-11.07-2.865-.931c0 0-4.947-1.694-5.467-1.954-.521-.261-7.03-.781-8.395-2.333-1.363-1.552-15.825-.401-16.95-.029-1.125.373-13.07-2.716-14.24-2.716s-9.906-3.109-9.906-3.109l-15.07 15.07c.614 11.919 5.469 23.661 14.573 32.766"/><path fill="#fff" d="m15.14 37.517v22.15h27.936l3.475-10.383c0-1.904 1.543-3.446 3.444-3.446 1.903 0 3.446 1.542 3.446 3.446l3.475 10.383h27.936v-22.15h-69.71"/><path fill="#1e5cc1" d="m40.03 51.29c0 2.066-1.675 3.741-3.742 3.741h-12.472c-2.067 0-3.742-1.675-3.742-3.741v-4.21c0-2.067 1.674-3.742 3.742-3.742h12.472c2.066 0 3.742 1.675 3.742 3.742v4.21"/><path fill="#ff2c2c" d="m79.42 51.32c0 2.066-1.676 3.74-3.742 3.74h-12.471c-2.066 0-3.742-1.674-3.742-3.74v-4.211c0-2.066 1.676-3.741 3.742-3.741h12.471c2.066 0 3.742 1.674 3.742 3.741v4.211"/></svg>