<svg xmlns="http://www.w3.org/2000/svg" viewBox="0 0 100 100" enable-background="new 0 0 100 100"><circle fill="#9b8b48" cx="50" cy="50.16" r="50"/><path fill="#897a3b" d="m76.47 51.59l-13.13-8.185-12.182-15.15-11.304 11.304-17.63-5.678-5.879-5.674-15.976 15.974c-1.76 14.708 2.989 30.05 14.275 41.33 10.158 10.157 23.597 15.02 36.906 14.607l35.771-35.771-10.853-12.761"/><path fill="#ba1a1a" d="m36.683 35.469h21.705v28.883h-21.705z"/><path fill="#2b3347" d="m16.346 87.13c1.867 1.702 3.833 3.237 5.879 4.606v-63.53h-5.879v58.924"/><path fill="#ba1a1a" d="m87.32 35.469h-21.7v28.881h21.7l-8.15-14.441z"/><g fill="#750303"><path d="m43.929 57.14l-7.246 7.21v-12.15z"/><path d="m51.16 57.14l7.23 7.21v-11.404z"/><path d="m65.62 52.01v12.34l7.244-7.21z"/></g><g fill="#ff2c2c"><path d="m22.23 28.26h21.705v28.883h-21.705z"/><path d="m51.16 28.26h21.705v28.881h-21.705z"/></g></svg>